# xmcd
#
# Track frame offsets:
#  150
#  15985
#  34053
#  52504
#  68766
#  84338
#  109442
#  126223
#  140853
#  159962
#
# Disc length: 2373 seconds
#
# Revision: 0
# Processed by: cddbd v1.5.1PL0 Copyright (c) Steve Scherf et al.
# Submitted via: Collectorz.com Music Collector 6.9
#
DISCID=7809430a
DTITLE=Skye Dyer - You Inspire Me
DYEAR=1900
DGENRE=
TTITLE0=My Way
TTITLE1=Joy
TTITLE2=You Inspire Me
TTITLE3=Lavender Fields
TTITLE4=Unreachable
TTITLE5=I Remember You
TTITLE6=A Better World
TTITLE7=Let It Be You
TTITLE8=Starry Starry Night
TTITLE9=Free
EXTD=
EXTT0=
EXTT1=
EXTT2=
EXTT3=
EXTT4=
EXTT5=
EXTT6=
EXTT7=
EXTT8=
EXTT9=
PLAYORDER=
